<svg width="1203" height="163" viewBox="0 0 1203 163" fill="none" xmlns="http://www.w3.org/2000/svg">
<path d="M550.111 0.139075C574.462 0.139075 598.834 0.218548 623.205 0.0397339C626.656 0.0397339 627.925 0.953673 627.925 4.23193C627.865 14.4045 627.925 22.1928 627.925 32.2064C628.064 35.6436 627.171 37.3324 623.622 37.3126C577.556 37.1735 531.49 37.2132 485.425 37.2331C477.869 37.2331 472.892 43.1737 472.535 49.6706C472.138 56.545 477.056 62.8631 484.235 63.0022C493.495 63.181 556.992 62.7042 579.063 63.0022C604.247 63.34 624.99 84.2413 626.358 109.772C627.746 135.74 609.126 158.688 583.921 161.966C580.55 162.403 577.1 162.622 573.689 162.622C527.484 162.661 481.3 162.622 435.095 162.741C431.486 162.741 430.852 161.35 430.812 158.33V129.74C430.812 127.991 431.486 125.587 435.056 125.607C480.626 125.746 526.235 125.508 571.805 125.607C577.576 125.607 582.632 122.667 584.596 118.395C588.899 109.792 582.394 99.7584 572.797 99.7584C542.199 99.7584 511.62 99.7584 481.062 99.7584C455.203 99.7187 434.163 80.367 431.843 54.7767C429.483 28.7493 446.954 5.56311 472.555 0.695386C475.331 0.158943 478.107 0.178811 480.883 0.178811H550.17H550.131L550.111 0.139075Z" fill="#003B95"/>
<path d="M858.59 37.2927C858.59 0.0397133 890.874 0.0397159 890.874 0.0397159C923.535 -0.0397571 978.94 0.0397159 1011.56 0.0397159C1016.34 0.0397159 1015.88 4.27165 1015.88 4.33126V32.6435C1015.88 32.6435 1016.2 37.2927 1011.46 37.2927C979.476 37.2927 905.33 37.2927 905.33 37.2927C905.33 37.2927 901.007 36.4781 901.007 41.167L900.968 59.8431C901.325 62.9823 905.37 62.9624 905.37 62.9624C905.37 62.9624 972.872 63.0816 1006.5 62.9624C1009.82 62.9624 1010.87 63.9956 1010.89 67.6911C1010.95 77.7842 1010.95 85.6321 1010.95 95.6656C1010.95 98.2882 1009.97 99.7386 1006.78 99.7187C972.892 99.5995 939.2 99.8578 905.311 99.7187C901.88 99.7187 900.908 101.07 900.948 104.626C901.146 122.686 900.551 140.707 900.73 158.767C900.769 162.025 899.976 162.661 896.843 162.602C882.902 162.443 872.472 162.741 862.081 162.741C860.97 162.741 858.551 162.145 858.551 158.151V37.2927H858.59Z" fill="#003B95"/>
<path d="M1117.45 0.119209C1144.38 0.119209 1171.31 0.178814 1198.24 0.0397364C1201.4 0.0397364 1202.29 0.814598 1202.21 3.97365C1201.99 14.027 1202.01 24.0803 1202.21 34.1336C1202.27 37.1139 1201.53 37.9682 1198.48 37.9285C1179.28 37.7894 1160.11 37.9285 1140.93 37.7894C1137.92 37.7894 1137.17 38.5841 1137.19 41.5644C1137.28 80.2478 1137.24 118.951 1137.24 157.635C1137.24 160.933 1135.54 162.582 1132.13 162.582C1122.11 162.582 1112.06 162.383 1102.03 162.681C1098.34 162.781 1097.76 161.529 1097.76 158.211C1097.86 119.527 1097.76 80.824 1097.92 42.1405C1097.92 38.7033 1097.11 37.7298 1093.6 37.7497C1074.42 37.9483 1055.25 37.7497 1036.07 37.9086C1033.02 37.9086 1032.22 37.0741 1032.28 34.0939C1032.46 23.9015 1032.48 13.729 1032.28 3.53655C1032.22 0.55631 1033.22 0 1035.95 0C1063.14 0.0993412 1090.33 0.0596042 1117.51 0.0596042L1117.45 0.119209Z" fill="#003B95"/>
<path d="M256.663 60.5584C256.663 41.9021 256.782 23.2259 256.564 4.58952C256.524 0.794686 257.674 -0.039779 261.263 0.039694C271.218 0.297981 281.153 0.278113 291.108 0.039694C294.558 -0.039779 295.61 0.834423 295.59 4.45044C295.451 39.9749 295.51 75.5191 295.51 111.044C295.51 120.7 300.012 125.567 309.649 125.587C343.063 125.587 369.933 125.726 403.347 125.587C406.937 125.587 407.71 126.958 407.611 130.435C407.353 140.409 407.452 149.429 407.571 159.383C407.571 161.827 406.996 162.681 404.398 162.661C369.319 162.582 340.684 163.039 305.624 162.463C277.009 162.006 256.802 142.276 256.802 118.852C256.544 117.62 256.663 116.309 256.663 115.037V60.5981V60.5584Z" fill="#F48220"/>
<path d="M239.787 81.6982C239.787 107.408 239.748 133.077 239.847 158.787C239.847 162.622 236.158 162.622 236.158 162.622L221.385 162.562C221.385 162.562 211.728 162.622 204.767 162.622C202.407 162.622 200.523 161.37 200.523 158.131C200.623 119.647 200.583 81.1618 200.583 42.6968C200.583 29.7825 200.702 16.8681 200.504 3.95376C200.444 0.596025 201.614 -0.0198904 204.648 0.0198461C215.099 0.19866 225.589 0.19866 236.039 0.0198461C239.073 -0.0397586 239.906 0.754972 239.886 3.81468C239.767 29.7825 239.807 55.7105 239.807 81.6783L239.787 81.6982Z" fill="#F48220"/>
<path d="M169.37 80.8439C193.543 100.394 187.812 148.475 147.953 160.357C142.659 161.926 137.285 162.681 131.713 162.661C89.1965 162.602 46.6804 162.582 4.16435 162.721C0.773379 162.721 0 161.906 0 158.549C0.118981 107.13 0.118981 55.6907 0 4.27167C0 0.894068 0.773379 0.0397339 4.18418 0.0397339C46.8192 0.178812 89.4741 0.099338 132.109 0.139075C155.806 0.139075 176.093 15.7356 180.396 37.7298C182.418 48.0811 182.359 58.5914 178.571 68.7242C176.747 73.592 174.407 78.0822 169.35 80.8637L169.37 80.8439ZM42.992 99.679C40.5529 99.679 39.6605 100.235 39.72 102.838C39.8985 109.355 39.8588 115.872 39.72 122.408C39.6803 124.614 40.1166 125.587 42.635 125.587C72.1226 125.508 101.63 125.587 131.118 125.488C139.347 125.488 144.701 120.123 144.701 112.554C144.701 104.984 139.208 99.7584 130.662 99.7584H87.7687C72.8365 99.7584 57.8845 99.818 42.9523 99.6988H42.992V99.679ZM43.0118 37.2927C40.5925 37.2927 39.6605 37.8689 39.72 40.4716C39.8985 46.7301 39.958 52.9886 39.72 59.2471C39.5812 62.426 40.7115 63.0022 43.6067 62.9823C72.0235 62.883 100.48 62.9227 128.916 62.9227C137.146 62.9227 142.461 57.9159 142.5 50.2071C142.54 42.3591 137.344 37.3722 129.095 37.3523C114.936 37.3523 100.797 37.3523 86.6384 37.3523C72.4796 37.3523 57.5672 37.4119 43.0316 37.3126L43.0118 37.2927Z" fill="#F48220"/>
<path d="M743.634 0.0397339H793.626C820.754 0.0397339 842.29 21.6763 842.29 48.9156V113.925C842.29 140.488 821.924 162.026 795.411 162.383C761.065 162.84 726.699 162.88 692.373 162.423C664.71 162.045 644.681 140.906 644.662 113.249V49.7699C644.701 21.1994 665.9 0.0397339 694.436 0.0397339H743.674H743.634ZM702.526 37.2927C692.175 37.2927 685.631 44.2267 685.611 54.6178C685.571 72.5986 685.571 90.5594 685.611 108.54C685.611 118.812 692.314 125.627 702.546 125.647C730.031 125.706 757.516 125.706 785.02 125.647C795.173 125.647 801.975 118.752 801.995 108.54C802.054 90.5594 802.054 72.5986 801.995 54.6178C801.955 44.2863 795.213 37.3126 784.921 37.2927C771.179 37.2927 757.535 37.2927 743.793 37.2927H702.526Z" fill="#003B95"/>
</svg>
